<svg xmlns="http://www.w3.org/2000/svg" shape-rendering="geometricPrecision"
    text-rendering="geometricPrecision" image-rendering="optimizeQuality" fill-rule="evenodd"
    clip-rule="evenodd" viewBox="0 0 512 433.23">
    <path fill="#0B5CC5" fill-rule="nonzero"
        d="M67.3 0h272.39c37.04 0 67.3 30.26 67.3 67.3v148.53h-93.2c-14.64 0-25.57 6.19-33.89 15.8-6.28 7.25-10.39 16.12-13.27 25.11l-1.76 5.47c-7.17.84-13.2 2.9-17.88 5.88-7.22 4.58-11.82 11.03-13.68 18.94-1.74 7.38-.7 14.86 3.2 22.08l.5.9c-12.19 20.17-10.25 44.49-8.15 70.83l.17 2.08-.03 1.09v12.03H67.3c-37.04 0-67.3-30.26-67.3-67.3V67.3C0 30.26 30.26 0 67.3 0z" />
    <path fill="#fff" fill-rule="nonzero"
        d="M328.54 43.03H78.45c-9.72 0-18.58 4-25 10.42-6.42 6.42-10.42 15.28-10.42 25v239.14c0 9.72 4 18.57 10.42 25 6.42 6.42 15.28 10.42 25 10.42h148.86c.02 4.05.19 8.19.43 12.39H78.45c-13.14 0-25.09-5.39-33.76-14.05-8.66-8.67-14.05-20.62-14.05-33.76V78.45c0-13.14 5.39-25.09 14.05-33.76 8.67-8.66 20.62-14.05 33.76-14.05h250.09c13.14 0 25.09 5.39 33.76 14.05 8.66 8.67 14.05 20.62 14.05 33.76v137.38h-12.4V78.45c0-9.72-3.99-18.58-10.41-25-6.43-6.42-15.28-10.42-25-10.42z" />
    <path fill="#fff" fill-rule="nonzero"
        d="M163.78 229.43v-37.45h43.91c5.62 0 10.14-.93 13.64-2.74 3.46-1.82 6-4.31 7.64-7.48 1.65-3.16 2.49-6.84 2.49-10.93 0-4.48-.84-8.62-2.49-12.5-1.64-3.88-4.18-7.01-7.64-9.33-3.5-2.37-8.02-3.55-13.64-3.55h-26.6v142.63H134.6V107.96h73.09c14.61 0 27.19 2.74 37.79 8.19 10.6 5.45 18.79 12.84 24.49 22.25 5.74 9.42 8.61 20.14 8.61 32.18 0 11.69-2.87 21.95-8.61 30.78-5.7 8.82-13.89 15.7-24.49 20.64-10.6 4.99-23.18 7.43-37.79 7.43h-43.91zM279.9 231.63c8.32-9.61 19.25-15.8 33.89-15.8h119.82c13.26 0 23.88 5.14 32.12 13.38 7.78 7.77 12.82 18.25 15.54 29.15l1.06 4.27c6.11 1.04 11.3 3.03 15.42 5.73 7.24 4.74 11.76 11.41 13.42 19.61 1.51 7.45.29 14.91-3.76 21.97a37.38 37.38 0 01-3.35 4.85c9.79 17.64 8.6 36.81 6.47 71.34-.3 4.92-.1 9.99-.1 14.93 0 8.81-3.65 16.86-9.53 22.74-5.83 5.82-13.84 9.43-22.65 9.43H446.7c-7.53 0-14.48-2.64-19.98-7.05-.96-.71-1.89-1.51-2.76-2.38a32.641 32.641 0 01-3.33-3.9H318.79c-1 1.39-2.11 2.69-3.32 3.9l-.05-.05-.05.05c-5.82 5.82-13.84 9.43-22.65 9.43h-31.54c-7.54 0-14.49-2.65-19.99-7.05-.96-.72-1.89-1.51-2.76-2.38-5.81-5.82-9.43-13.87-9.43-22.74v-17.05l.03-1.09-.17-2.08c-2.1-26.34-4.04-50.66 8.15-70.83l-.5-.9c-3.9-7.22-4.94-14.7-3.2-22.08 1.86-7.91 6.46-14.36 13.68-18.94 4.68-2.98 10.71-5.04 17.88-5.88l1.76-5.47c2.88-8.99 6.99-17.86 13.27-25.11z" />
    <path fill="#1A1A1A"
        d="M313.79 240.61c-13.02 0-19.65 11.26-23.64 23.68l-10.14 31.54-4.92-9.22c-21.99-1.3-24.5 11.1-2.62 22.22-24.37 15.78-21 43.4-18.61 74.03-.04.38-.08.76-.08 1.15v17.05c0 4.06 3.33 7.39 7.4 7.39h31.54c4.07 0 7.4-3.33 7.4-7.39v-5.94h139.19v5.94c0 4.06 3.33 7.39 7.39 7.39h31.55c4.07 0 7.39-3.33 7.39-7.39v-13.12c2.46-39.92 3.93-56.05-11.79-72.22l-3.89-5.95c23.91-11.35 21.9-24.48-.7-23.16l-4.38 8.25-7.62-30.59c-3.14-12.62-10.64-23.66-23.65-23.66H313.79zm-9.64 21.15c.96-1.9 2.16-3.38 3.56-4.53 2.71-2.59 6.09-4.2 10.38-4.2h109.88c9.92 0 15.94 8.37 18.04 18.03l7.63 31.73H290.53v1.49-1.49l9.53-31.73c1.07-3.32 2.39-6.53 4.09-9.3zm8.6 83.39l-28.02-3.52c-6.61-.74-8.39 2.05-6.14 7.75l3.03 7.35c.98 1.9 2.27 3.27 3.79 4.23 1.77 1.09 3.9 1.63 6.28 1.73l24.99.2c6.03-.02 8.65-2.43 6.76-7.97-1.56-5.2-5.11-8.47-10.69-9.77zm113.88 0l28.02-3.52c6.62-.74 8.39 2.05 6.14 7.75l-3.03 7.35c-.97 1.9-2.27 3.27-3.79 4.23-1.77 1.09-3.9 1.63-6.27 1.73l-24.99.2c-6.04-.02-8.65-2.43-6.76-7.97 1.56-5.2 5.1-8.47 10.68-9.77z" />
</svg>